
        <svg
            xmlns="http://www.w3.org/2000/svg"
            width="36"
            height="19"
            viewBox="0 0 36 19"
            fill="none"
        >
            <path
                d="M19.399 0.443277C18.686 0.455727 18.1871 0.479441 17.7559 0.520346C16.623 0.627649 15.8762 0.868935 15.1371 1.36455C14.8488 1.5584 14.6145 1.75345 14.3541 2.01726C14.1548 2.21882 14.013 2.38423 13.8315 2.62432C13.0171 3.70329 12.1333 5.31343 11.1825 7.45002C10.7506 8.4199 10.4416 9.16391 9.71261 10.9833C9.09809 12.5182 8.97709 12.8069 8.81693 13.1235C8.73982 13.2758 8.68822 13.3606 8.64432 13.4063C8.61585 13.4353 8.60755 13.4406 8.59034 13.4406C8.56721 13.4406 8.55772 13.4317 8.53933 13.3962C8.44383 13.2047 8.37503 12.4494 8.31571 10.9448C8.29554 10.4231 8.27656 9.83915 8.24453 8.72165C8.19589 7.02377 8.17454 6.35979 8.14369 5.58555C8.07251 3.80822 7.97939 2.58342 7.87677 2.07476C7.72433 1.31949 7.38444 0.823286 6.86958 0.602751C6.64062 0.504339 6.42352 0.462248 6.14473 0.462248C5.82265 0.462248 5.59902 0.504932 4.92875 0.695826C4.1434 0.918734 3.30645 1.20507 2.24706 1.61235C1.70728 1.82044 0.474097 2.31131 0.403511 2.34688C0.22141 2.43877 0.0802373 2.59231 0.0274458 2.75771C-0.0146687 2.88932 -0.00814395 3.02805 0.0458339 3.14543C0.124725 3.31557 0.276574 3.43414 0.497824 3.49876C0.855501 3.60369 1.09751 3.7104 1.33774 3.87047C1.55484 4.01453 1.75711 4.21194 1.90896 4.42892C2.16698 4.79767 2.33307 5.26245 2.44577 5.93235C2.49085 6.20269 2.50331 6.29932 2.60059 7.12692C2.94165 10.0455 3.2762 12.7512 3.62142 15.3822C3.71395 16.0906 3.73709 16.24 3.78988 16.4748C3.92927 17.1008 4.16654 17.5099 4.56099 17.8057C4.65412 17.8751 4.74902 17.9326 4.87537 17.996C5.462 18.2877 6.15244 18.475 6.86543 18.5355C7.23615 18.5669 7.69585 18.5627 8.07251 18.5242C8.94565 18.4347 9.80217 18.1833 10.5875 17.7861C11.5218 17.313 12.3041 16.658 12.8623 15.8802C13.0296 15.6478 13.1245 15.4883 13.3558 15.0532C14.1281 13.6007 14.8102 12.239 16.1662 9.44195C17.1776 7.35635 17.6497 6.40425 18.1041 5.53812C18.67 4.45916 19.1261 3.6695 19.5621 3.01263C19.8812 2.53184 20.1102 2.2289 20.4239 1.87201C20.5509 1.72736 20.6369 1.62124 20.6998 1.53173C20.8783 1.2774 20.9602 1.07821 20.9513 0.916954C20.9453 0.804909 20.9026 0.724283 20.8113 0.651957C20.6743 0.542282 20.434 0.478848 20.0574 0.451578C19.9666 0.445057 19.5751 0.440313 19.399 0.443277Z"
                fill="white"
            />
            <path
                d="M28.7573 0.452034C26.1942 0.560522 23.6626 1.61162 21.6482 3.40318C21.3487 3.66995 20.9857 4.0304 20.7223 4.32267C19.2198 5.99032 18.2577 8.00241 17.9475 10.1265C17.795 11.1717 17.7909 12.1125 17.9356 12.9852C18.2529 14.9048 19.269 16.3638 20.9335 17.291C21.6239 17.6757 22.6649 18.0611 23.6116 18.2834C24.846 18.5733 26.1041 18.6338 27.3076 18.4618C28.7353 18.2573 30.1227 17.7403 31.474 16.9098C32.1442 16.4978 32.5375 16.1593 32.8376 15.7377C33.1057 15.3601 33.2813 14.8609 33.3347 14.3268C33.3454 14.2177 33.3436 13.9806 33.3312 13.8881C33.2849 13.5413 33.1591 13.329 32.9397 13.2271C32.8382 13.1797 32.7504 13.1648 32.5962 13.1696C32.3578 13.1761 32.1905 13.2217 31.5861 13.4452C30.497 13.8484 29.3605 14.0968 28.2323 14.178C27.9363 14.1993 27.8444 14.2023 27.4316 14.2023C27.0068 14.2023 26.9374 14.1999 26.616 14.175C25.5281 14.092 24.6271 13.8407 24.0529 13.4613C23.5594 13.134 23.2652 12.6852 23.1584 12.0948C23.1436 12.0118 23.1228 11.8636 23.1264 11.8606C23.1323 11.8547 24.0043 11.6887 24.1662 11.6626C24.3691 11.6294 25.5073 11.461 27.5976 11.1551C28.4304 11.033 29.3309 10.9002 29.8635 10.8208C31.3132 10.6038 33.0921 10.3263 33.3021 10.2836C33.5138 10.2404 33.779 10.1597 33.9646 10.0827C34.9024 9.69081 35.5175 8.90589 35.8011 7.74037C35.8912 7.37044 35.9535 6.96731 35.9891 6.52802C36.0022 6.36558 36.0039 5.78638 35.9921 5.63284C35.96 5.22615 35.9031 4.88053 35.8124 4.54557C35.6042 3.77489 35.2459 3.10913 34.7221 2.51748C34.6355 2.41966 34.4155 2.19972 34.3152 2.11079C33.429 1.32528 32.2931 0.824928 30.8452 0.582458C30.4241 0.511909 30.0243 0.471004 29.5729 0.451441C29.4175 0.44492 28.921 0.44492 28.7573 0.452034ZM28.0247 4.84436C28.3005 4.85859 28.5799 4.8989 28.8053 4.957C29.2597 5.07438 29.5776 5.28188 29.7894 5.60023C29.8398 5.67671 29.9193 5.8344 29.9537 5.92926C30.0421 6.16935 30.0996 6.48237 30.1162 6.81436L30.1204 6.89499L30.1002 6.89854C30.0148 6.91396 24.1543 7.80796 24.1525 7.80558C24.1484 7.80203 24.1775 7.67694 24.2077 7.56786C24.4218 6.7948 24.8952 6.10651 25.5542 5.6109C26.2642 5.07616 27.1551 4.7999 28.0247 4.84436Z"
                fill="white"
            />
        </svg>
    