
        <svg
            xmlns="http://www.w3.org/2000/svg"
            width="22"
            height="22"
            viewBox="0 0 22 22"
            fill="none"
        >
            <g filter="url(#filter0_f_2491_7824)">
                <path
                    d="M16.0312 2L13.6764 2.791L14.2752 3.3194C12.938 4.67419 11.2752 5.59859 9.44425 6.00099L8.01306 6.31539C7.77306 6.36819 7.62126 6.60539 7.67406 6.84539C7.71986 7.05319 7.90386 7.19479 8.10826 7.19479C8.13986 7.19479 8.17206 7.19139 8.20426 7.18439L9.63545 6.86999C11.6516 6.42699 13.479 5.40519 14.943 3.9082L15.5396 4.43459L16.0312 2Z"
                    fill="white"
                />
                <path
                    d="M16.2097 5.7384H15.1849C14.9079 5.7384 14.6833 5.963 14.6833 6.24V12.201C14.7039 12.2228 14.7223 12.2464 14.7405 12.2702L14.7425 12.2688L16.7113 10.589V6.2402C16.7113 5.963 16.4867 5.7384 16.2097 5.7384Z"
                    fill="white"
                />
                <path
                    d="M13.2957 11.9332V8.19801C13.2957 7.92101 13.0711 7.69641 12.7941 7.69641H11.7693C11.4923 7.69641 11.2677 7.92101 11.2677 8.19801V11.9332H13.2957Z"
                    fill="white"
                />
                <path
                    d="M9.88114 11.8186V9.26564C9.88114 8.98864 9.65654 8.76404 9.37955 8.76404H8.35475C8.07775 8.76404 7.85315 8.98864 7.85315 9.26564V11.9454C8.48215 11.7544 9.15735 11.7098 9.88114 11.8186Z"
                    fill="white"
                />
                <path
                    d="M6.66106 19.8867L2.83027 16.3871C2.65407 16.2261 2.64167 15.9525 2.80267 15.7763L4.05587 14.4045C4.21687 14.2283 4.49047 14.2159 4.66667 14.3769L8.49726 17.8765C8.67346 18.0375 8.68586 18.3111 8.52486 18.4873L7.27166 19.8591C7.11066 20.0355 6.83726 20.0479 6.66106 19.8867Z"
                    fill="white"
                />
                <path
                    d="M18.9638 10.4839C18.604 10.2055 18.0926 10.2415 17.7754 10.5677L15.2836 12.6937C15.3896 13.0071 15.444 13.3115 15.444 13.4913C15.444 14.1283 14.9316 14.6479 14.2974 14.6597L10.6368 15.2045C10.623 15.2067 10.6092 15.2075 10.5956 15.2075C10.46 15.2075 10.3414 15.1085 10.3208 14.9703C10.2982 14.8183 10.4032 14.6769 10.555 14.6543L14.2756 14.1035C14.6132 14.1035 14.8878 13.8287 14.8878 13.4913C14.8878 13.2719 14.8054 12.9715 14.6954 12.7089C14.5706 12.6407 14.4282 12.6007 14.2756 12.6007H10.5156C8.53204 12.0963 6.88565 12.6569 5.51465 14.0869L8.80944 17.0969L9.44564 16.6695C9.67024 16.5689 9.91044 16.5089 10.1552 16.5089H13.3194C14.336 16.5089 15.3036 16.0721 15.976 15.3095L19.0868 11.7819C19.4284 11.3949 19.3718 10.7999 18.9638 10.4839Z"
                    fill="white"
                />
            </g>
            <path
                d="M16.0312 2L13.6764 2.791L14.2752 3.3194C12.938 4.67419 11.2752 5.59859 9.44425 6.00099L8.01306 6.31539C7.77306 6.36819 7.62126 6.60539 7.67406 6.84539C7.71986 7.05319 7.90386 7.19479 8.10826 7.19479C8.13986 7.19479 8.17206 7.19139 8.20426 7.18439L9.63545 6.86999C11.6516 6.42699 13.479 5.40519 14.943 3.9082L15.5396 4.43459L16.0312 2Z"
                fill="white"
            />
            <path
                d="M16.2097 5.7384H15.1849C14.9079 5.7384 14.6833 5.963 14.6833 6.24V12.201C14.7039 12.2228 14.7223 12.2464 14.7405 12.2702L14.7425 12.2688L16.7113 10.589V6.2402C16.7113 5.963 16.4867 5.7384 16.2097 5.7384Z"
                fill="white"
            />
            <path
                d="M13.2957 11.9332V8.19801C13.2957 7.92101 13.0711 7.69641 12.7941 7.69641H11.7693C11.4923 7.69641 11.2677 7.92101 11.2677 8.19801V11.9332H13.2957Z"
                fill="white"
            />
            <path
                d="M9.88114 11.8186V9.26564C9.88114 8.98864 9.65654 8.76404 9.37955 8.76404H8.35475C8.07775 8.76404 7.85315 8.98864 7.85315 9.26564V11.9454C8.48215 11.7544 9.15735 11.7098 9.88114 11.8186Z"
                fill="white"
            />
            <path
                d="M6.66106 19.8867L2.83027 16.3871C2.65407 16.2261 2.64167 15.9525 2.80267 15.7763L4.05587 14.4045C4.21687 14.2283 4.49047 14.2159 4.66667 14.3769L8.49726 17.8765C8.67346 18.0375 8.68586 18.3111 8.52486 18.4873L7.27166 19.8591C7.11066 20.0355 6.83726 20.0479 6.66106 19.8867Z"
                fill="white"
            />
            <path
                d="M18.9638 10.4839C18.604 10.2055 18.0926 10.2415 17.7754 10.5677L15.2836 12.6937C15.3896 13.0071 15.444 13.3115 15.444 13.4913C15.444 14.1283 14.9316 14.6479 14.2974 14.6597L10.6368 15.2045C10.623 15.2067 10.6092 15.2075 10.5956 15.2075C10.46 15.2075 10.3414 15.1085 10.3208 14.9703C10.2982 14.8183 10.4032 14.6769 10.555 14.6543L14.2756 14.1035C14.6132 14.1035 14.8878 13.8287 14.8878 13.4913C14.8878 13.2719 14.8054 12.9715 14.6954 12.7089C14.5706 12.6407 14.4282 12.6007 14.2756 12.6007H10.5156C8.53204 12.0963 6.88565 12.6569 5.51465 14.0869L8.80944 17.0969L9.44564 16.6695C9.67024 16.5689 9.91044 16.5089 10.1552 16.5089H13.3194C14.336 16.5089 15.3036 16.0721 15.976 15.3095L19.0868 11.7819C19.4284 11.3949 19.3718 10.7999 18.9638 10.4839Z"
                fill="white"
            />
            <defs>
                <filter
                    id="filter0_f_2491_7824"
                    x="0.689575"
                    y="0"
                    width="20.6208"
                    height="21.9999"
                    filterUnits="userSpaceOnUse"
                    color-interpolation-filters="sRGB"
                >
                    <feFlood flood-opacity="0" result="BackgroundImageFix" />
                    <feBlend
                        mode="normal"
                        in="SourceGraphic"
                        in2="BackgroundImageFix"
                        result="shape"
                    />
                    <feGaussianBlur
                        stdDeviation="1"
                        result="effect1_foregroundBlur_2491_7824"
                    />
                </filter>
            </defs>
        </svg>

