
        <svg
            xmlns="http://www.w3.org/2000/svg"
            width="16"
            height="20"
            viewBox="0 0 16 20"
            fill="none"
        >
            <g filter="url(#filter0_f_1295_126)">
                <path
                    d="M9.42847 3.57147V6.42861C9.42847 6.61805 9.50372 6.79973 9.63768 6.93369C9.77163 7.06764 9.95331 7.1429 10.1428 7.1429H12.9999"
                    stroke="white"
                    stroke-width="1.33333"
                    stroke-linecap="round"
                    stroke-linejoin="round"
                />
                <path
                    d="M5.85714 6.42858H6.57142M5.85714 10.7143H10.1428M8.71428 13.5714H10.1428M11.5714 16.4286H4.42857C4.04969 16.4286 3.68633 16.2781 3.41842 16.0101C3.15051 15.7422 3 15.3789 3 15V5.00001C3 4.62113 3.15051 4.25777 3.41842 3.98986C3.68633 3.72195 4.04969 3.57144 4.42857 3.57144H9.42856L13 7.14286V15C13 15.3789 12.8495 15.7422 12.5816 16.0101C12.3137 16.2781 11.9503 16.4286 11.5714 16.4286Z"
                    stroke="white"
                    stroke-width="1.33333"
                    stroke-linecap="round"
                    stroke-linejoin="round"
                />
            </g>
            <path
                d="M9.42847 3.57147V6.42861C9.42847 6.61805 9.50372 6.79973 9.63768 6.93369C9.77163 7.06764 9.95331 7.1429 10.1428 7.1429H12.9999"
                stroke="white"
                stroke-width="1.33333"
                stroke-linecap="round"
                stroke-linejoin="round"
            />
            <path
                d="M5.85714 6.42858H6.57142M5.85714 10.7143H10.1428M8.71428 13.5714H10.1428M11.5714 16.4286H4.42857C4.04969 16.4286 3.68633 16.2781 3.41842 16.0101C3.15051 15.7422 3 15.3789 3 15V5.00001C3 4.62113 3.15051 4.25777 3.41842 3.98986C3.68633 3.72195 4.04969 3.57144 4.42857 3.57144H9.42856L13 7.14286V15C13 15.3789 12.8495 15.7422 12.5816 16.0101C12.3137 16.2781 11.9503 16.4286 11.5714 16.4286Z"
                stroke="white"
                stroke-width="1.33333"
                stroke-linecap="round"
                stroke-linejoin="round"
            />
            <defs>
                <filter
                    id="filter0_f_1295_126"
                    x="0.333252"
                    y="0.904785"
                    width="15.3335"
                    height="18.1905"
                    filterUnits="userSpaceOnUse"
                    colorInterpolationFilters="sRGB"
                >
                    <feFlood floodOpacity="0" result="BackgroundImageFix" />
                    <feBlend
                        mode="normal"
                        in="SourceGraphic"
                        in2="BackgroundImageFix"
                        result="shape"
                    />
                    <feGaussianBlur
                        stdDeviation="1"
                        result="effect1_foregroundBlur_1295_126"
                    />
                </filter>
            </defs>
        </svg>

