
        <svg
            xmlns="http://www.w3.org/2000/svg"
            width="12"
            height="12"
            viewBox="0 0 12 12"
            fill="none"
        >
            <path
                d="M11.3333 5.33334C11.1703 4.16015 10.626 3.07311 9.78438 2.23967C8.94276 1.40623 7.85046 0.87262 6.67574 0.721043C5.50102 0.569465 4.30904 0.808329 3.28343 1.40084C2.25781 1.99335 1.45546 2.90663 0.999959 4.00001M0.666626 1.33334V4.00001H3.33329M0.666626 6.66667C0.829666 7.83986 1.37391 8.9269 2.21553 9.76034C3.05715 10.5938 4.14946 11.1274 5.32418 11.279C6.4989 11.4306 7.69088 11.1917 8.71649 10.5992C9.74211 10.0067 10.5445 9.09338 11 8.00001M11.3333 10.6667V8.00001H8.66663"
                stroke="#E4E5E6"
                stroke-opacity="0.48"
                stroke-width="1.33333"
                stroke-linecap="round"
                stroke-linejoin="round"
            />
        </svg>
   